<svg width="17" height="13" viewBox="0 0 17 13" fill="none" xmlns="http://www.w3.org/2000/svg">
<path d="M1.14646 0.0354277C0.975012 0.0354277 0.810581 0.103537 0.689345 0.224773C0.568109 0.346009 0.5 0.510439 0.5 0.681892C0.5 0.853345 0.568109 1.01778 0.689345 1.13901C0.810581 1.26025 0.975012 1.32836 1.14646 1.32836H2.58162L4.27794 8.11624C4.4221 8.69159 4.93733 9.08593 5.53014 9.08593H13.5916C14.1753 9.08593 14.6712 8.69805 14.8244 8.13563L16.5 1.97482H15.1463L13.5909 7.793H5.52949L3.83382 1.00512C3.76377 0.726646 3.6023 0.479729 3.37527 0.303913C3.14823 0.128098 2.86876 0.0335561 2.58162 0.0354277H1.14646ZM12.7828 9.08593C11.7194 9.08593 10.8434 9.96189 10.8434 11.0253C10.8434 12.0888 11.7194 12.9647 12.7828 12.9647C13.8463 12.9647 14.7222 12.0888 14.7222 11.0253C14.7222 9.96189 13.8463 9.08593 12.7828 9.08593ZM6.96465 9.08593C5.90121 9.08593 5.02525 9.96189 5.02525 11.0253C5.02525 12.0888 5.90121 12.9647 6.96465 12.9647C8.02808 12.9647 8.90404 12.0888 8.90404 11.0253C8.90404 9.96189 8.02808 9.08593 6.96465 9.08593ZM8.90404 0.0354277V3.26775H6.96465L9.5505 5.85361L12.1364 3.26775H10.197V0.0354277H8.90404ZM6.96465 10.3789C7.32925 10.3789 7.61111 10.6607 7.61111 11.0253C7.61111 11.3899 7.32925 11.6718 6.96465 11.6718C6.60004 11.6718 6.31818 11.3899 6.31818 11.0253C6.31818 10.6607 6.60004 10.3789 6.96465 10.3789ZM12.7828 10.3789C13.1474 10.3789 13.4293 10.6607 13.4293 11.0253C13.4293 11.3899 13.1474 11.6718 12.7828 11.6718C12.4182 11.6718 12.1364 11.3899 12.1364 11.0253C12.1364 10.6607 12.4182 10.3789 12.7828 10.3789Z" fill="white"/>
</svg>
