<svg width="23" height="22" viewBox="0 0 23 22" fill="none" xmlns="http://www.w3.org/2000/svg">
<path d="M0 0.733333C0 0.328325 0.343248 0 0.766666 0H3.06667C3.41846 0 3.72512 0.229018 3.81044 0.555474L4.43193 2.93333H22.2333C22.4614 2.93333 22.6776 3.03046 22.8233 3.19833C22.9689 3.36621 23.0289 3.58739 22.9869 3.80181L20.6869 15.5351C20.6189 15.882 20.3023 16.1333 19.9333 16.1333H18.4H7.66666H6.13333C5.7644 16.1333 5.44779 15.882 5.3798 15.5351L3.08401 3.82331L2.46807 1.46667H0.766666C0.343248 1.46667 0 1.13834 0 0.733333ZM4.75711 4.4L6.76961 14.6667H19.2971L21.3096 4.4H4.75711ZM7.66666 16.1333C5.97299 16.1333 4.6 17.4466 4.6 19.0667C4.6 20.6867 5.97299 22 7.66666 22C9.36034 22 10.7333 20.6867 10.7333 19.0667C10.7333 17.4466 9.36034 16.1333 7.66666 16.1333ZM18.4 16.1333C16.7063 16.1333 15.3333 17.4466 15.3333 19.0667C15.3333 20.6867 16.7063 22 18.4 22C20.0937 22 21.4667 20.6867 21.4667 19.0667C21.4667 17.4466 20.0937 16.1333 18.4 16.1333ZM7.66666 17.6C8.5135 17.6 9.2 18.2566 9.2 19.0667C9.2 19.8767 8.5135 20.5333 7.66666 20.5333C6.81983 20.5333 6.13333 19.8767 6.13333 19.0667C6.13333 18.2566 6.81983 17.6 7.66666 17.6ZM18.4 17.6C19.2468 17.6 19.9333 18.2566 19.9333 19.0667C19.9333 19.8767 19.2468 20.5333 18.4 20.5333C17.5532 20.5333 16.8667 19.8767 16.8667 19.0667C16.8667 18.2566 17.5532 17.6 18.4 17.6Z" fill="white"/>
</svg>
