<svg width="21" height="26" viewBox="0 0 21 26" fill="none" xmlns="http://www.w3.org/2000/svg">
<path d="M5.5 6C5.5 5.73478 5.60536 5.48043 5.79289 5.29289C5.98043 5.10536 6.23478 5 6.5 5H14.5C14.7652 5 15.0196 5.10536 15.2071 5.29289C15.3946 5.48043 15.5 5.73478 15.5 6C15.5 6.26522 15.3946 6.51957 15.2071 6.70711C15.0196 6.89464 14.7652 7 14.5 7H6.5C6.23478 7 5.98043 6.89464 5.79289 6.70711C5.60536 6.51957 5.5 6.26522 5.5 6ZM6.5 11H14.5C14.7652 11 15.0196 10.8946 15.2071 10.7071C15.3946 10.5196 15.5 10.2652 15.5 10C15.5 9.73478 15.3946 9.48043 15.2071 9.29289C15.0196 9.10536 14.7652 9 14.5 9H6.5C6.23478 9 5.98043 9.10536 5.79289 9.29289C5.60536 9.48043 5.5 9.73478 5.5 10C5.5 10.2652 5.60536 10.5196 5.79289 10.7071C5.98043 10.8946 6.23478 11 6.5 11ZM20.5 2V24C20.5 24.5304 20.2893 25.0391 19.9142 25.4142C19.5391 25.7893 19.0304 26 18.5 26H2.5C1.96957 26 1.46086 25.7893 1.08579 25.4142C0.710714 25.0391 0.5 24.5304 0.5 24V2C0.5 1.46957 0.710714 0.960859 1.08579 0.585786C1.46086 0.210714 1.96957 0 2.5 0H18.5C19.0304 0 19.5391 0.210714 19.9142 0.585786C20.2893 0.960859 20.5 1.46957 20.5 2ZM18.5 2H2.5V24H18.5V2ZM10.5 18C10.2033 18 9.91332 18.088 9.66665 18.2528C9.41997 18.4176 9.22771 18.6519 9.11418 18.926C9.00065 19.2001 8.97094 19.5017 9.02882 19.7926C9.0867 20.0836 9.22956 20.3509 9.43934 20.5607C9.64912 20.7704 9.91639 20.9133 10.2074 20.9712C10.4983 21.0291 10.7999 20.9993 11.074 20.8858C11.3481 20.7723 11.5824 20.58 11.7472 20.3334C11.912 20.0867 12 19.7967 12 19.5C12 19.1022 11.842 18.7206 11.5607 18.4393C11.2794 18.158 10.8978 18 10.5 18Z" fill="white"/>
</svg>
