<svg xmlns="http://www.w3.org/2000/svg" xmlns:xlink="http://www.w3.org/1999/xlink" xmlns:serif="http://www.serif.com/" viewBox="0 0 32 40" version="1.1" xml:space="preserve" style="" x="0px" y="0px" fill-rule="evenodd" clip-rule="evenodd" stroke-linejoin="round" stroke-miterlimit="2"><g transform="matrix(1,0,0,1,-2479.69,-2.19562)"><path d="M2499.11,25.393C2499.11,25.443 2499.12,25.493 2499.13,25.542C2499.38,26.256 2499.76,26.917 2500.26,27.486C2500.37,27.618 2500.55,27.68 2500.72,27.65L2501.43,27.523C2501.87,27.887 2502.37,28.175 2502.91,28.373C2502.91,28.372 2503.15,29.054 2503.15,29.054C2503.21,29.219 2503.36,29.341 2503.53,29.375C2504.27,29.52 2505.03,29.52 2505.77,29.375C2505.94,29.341 2506.09,29.219 2506.15,29.054L2506.39,28.372C2506.93,28.175 2507.43,27.887 2507.87,27.522C2507.87,27.523 2508.58,27.65 2508.58,27.65C2508.75,27.68 2508.93,27.618 2509.04,27.486C2509.54,26.917 2509.92,26.256 2510.17,25.542C2510.22,25.376 2510.19,25.192 2510.08,25.058L2509.61,24.503C2509.7,23.941 2509.7,23.365 2509.61,22.803C2509.61,22.803 2510.08,22.248 2510.08,22.248C2510.19,22.114 2510.22,21.93 2510.17,21.764C2509.92,21.049 2509.54,20.389 2509.04,19.82C2508.93,19.687 2508.75,19.625 2508.58,19.656L2507.87,19.783C2507.61,19.574 2507.34,19.39 2507.05,19.234L2507.05,7.407C2507.05,7.131 2506.83,6.907 2506.55,6.907L2481.69,6.907C2481.42,6.907 2481.19,7.131 2481.19,7.407L2481.19,24.893C2481.19,25.17 2481.42,25.393 2481.69,25.393L2499.11,25.393ZM2505.3,18.867L2505.53,19.499C2505.59,19.646 2505.71,19.759 2505.86,19.806C2506.42,19.983 2506.94,20.284 2507.38,20.685C2507.49,20.791 2507.65,20.837 2507.8,20.81L2508.47,20.692C2508.74,21.039 2508.96,21.421 2509.12,21.827C2509.12,21.828 2508.69,22.342 2508.69,22.342C2508.59,22.462 2508.55,22.621 2508.58,22.773C2508.71,23.353 2508.71,23.953 2508.58,24.532C2508.55,24.684 2508.59,24.844 2508.69,24.963L2509.12,25.478C2508.96,25.885 2508.74,26.267 2508.47,26.613C2508.47,26.614 2507.8,26.496 2507.8,26.496C2507.65,26.469 2507.49,26.515 2507.38,26.62C2506.94,27.022 2506.42,27.322 2505.86,27.5C2505.71,27.546 2505.59,27.66 2505.53,27.806L2505.3,28.439C2504.87,28.499 2504.43,28.499 2503.99,28.439C2503.99,28.439 2503.76,27.806 2503.76,27.806C2503.71,27.66 2503.59,27.546 2503.44,27.5C2502.88,27.322 2502.36,27.022 2501.92,26.62C2501.81,26.515 2501.65,26.469 2501.49,26.496L2500.83,26.614C2500.56,26.267 2500.34,25.885 2500.18,25.479C2500.18,25.478 2500.61,24.963 2500.61,24.963C2500.71,24.844 2500.75,24.684 2500.72,24.532C2500.59,23.953 2500.59,23.353 2500.72,22.773C2500.75,22.621 2500.71,22.462 2500.61,22.342L2500.18,21.828C2500.34,21.421 2500.56,21.039 2500.83,20.692C2500.83,20.692 2501.49,20.81 2501.49,20.81C2501.65,20.837 2501.81,20.791 2501.92,20.685C2502.36,20.284 2502.88,19.983 2503.44,19.806C2503.59,19.759 2503.71,19.646 2503.76,19.499L2503.99,18.867C2504.43,18.807 2504.87,18.807 2505.3,18.866L2505.3,18.867ZM2504.65,21.315C2503.36,21.315 2502.31,22.363 2502.31,23.653C2502.31,24.943 2503.36,25.99 2504.65,25.99C2505.94,25.99 2506.99,24.943 2506.99,23.653C2506.99,22.363 2505.94,21.315 2504.65,21.315ZM2504.65,22.315C2505.39,22.315 2505.99,22.915 2505.99,23.653C2505.99,24.391 2505.39,24.99 2504.65,24.99C2503.91,24.99 2503.31,24.391 2503.31,23.653C2503.31,22.915 2503.91,22.315 2504.65,22.315ZM2482.19,20.427L2482.19,24.393L2499.67,24.393C2499.59,23.866 2499.6,23.329 2499.69,22.803L2499.22,22.248C2499.11,22.114 2499.08,21.93 2499.13,21.764C2499.38,21.049 2499.76,20.389 2500.26,19.82C2500.37,19.687 2500.55,19.625 2500.72,19.656C2500.72,19.656 2501.43,19.783 2501.43,19.783C2501.87,19.418 2502.37,19.131 2502.91,18.933L2503.15,18.251C2503.19,18.146 2503.26,18.059 2503.35,18L2501.26,15.753L2496.52,20.826C2496.42,20.927 2496.29,20.984 2496.15,20.984C2496.01,20.984 2495.88,20.927 2495.79,20.826C2495.79,20.826 2488.8,13.348 2488.8,13.348L2482.19,20.427ZM2506.05,18.096L2506.06,7.907C2506.06,7.907 2482.19,7.907 2482.19,7.907L2482.19,18.962L2488.44,12.274C2488.53,12.173 2488.67,12.115 2488.8,12.115C2488.94,12.115 2489.08,12.173 2489.17,12.274C2489.17,12.274 2496.15,19.752 2496.15,19.752L2500.89,14.68C2500.99,14.578 2501.12,14.521 2501.26,14.521C2501.39,14.521 2501.53,14.578 2501.62,14.68L2504.56,17.823C2504.96,17.816 2505.37,17.852 2505.77,17.931C2505.88,17.953 2505.98,18.012 2506.05,18.096ZM2496.23,10.525C2494.88,10.525 2493.79,11.619 2493.79,12.966C2493.79,14.314 2494.88,15.408 2496.23,15.408C2497.58,15.408 2498.67,14.314 2498.67,12.966C2498.67,11.619 2497.58,10.525 2496.23,10.525ZM2496.23,11.525C2497.03,11.525 2497.67,12.171 2497.67,12.966C2497.67,13.762 2497.03,14.408 2496.23,14.408C2495.44,14.408 2494.79,13.762 2494.79,12.966C2494.79,12.171 2495.44,11.525 2496.23,11.525Z"/></g><text x="0" y="47" fill="#000000" font-size="5px" font-weight="bold" font-family="'Helvetica Neue', Helvetica, Arial-Unicode, Arial, Sans-serif">Created by rendicon</text><text x="0" y="52" fill="#000000" font-size="5px" font-weight="bold" font-family="'Helvetica Neue', Helvetica, Arial-Unicode, Arial, Sans-serif">from the Noun Project</text></svg>