<svg width="118" height="50" viewBox="0 0 118 50" fill="none" xmlns="http://www.w3.org/2000/svg">
<path d="M44.075 23.75C43.175 23.75 42.3417 23.6917 41.575 23.575C40.825 23.4583 40.0417 23.2583 39.225 22.975C38.3417 22.675 37.65 22.1917 37.15 21.525C36.65 20.8417 36.4 20.0167 36.4 19.05V11.95C36.4 11.15 36.575 10.4333 36.925 9.8C37.2917 9.16667 37.7583 8.66667 38.325 8.3C38.825 7.98333 39.4417 7.71667 40.175 7.5C40.9083 7.28333 41.5917 7.15 42.225 7.1C42.8083 7.05 43.425 7.025 44.075 7.025C44.8417 7.025 45.5083 7.05833 46.075 7.125C46.6417 7.175 47.275 7.29167 47.975 7.475C48.775 7.70833 49.4333 7.99167 49.95 8.325C50.4667 8.65833 50.9 9.125 51.25 9.725C51.6167 10.3417 51.8 11.0833 51.8 11.95V19.05C51.8 19.95 51.5583 20.725 51.075 21.375C50.6083 22.025 49.9583 22.5167 49.125 22.85C47.625 23.45 45.9417 23.75 44.075 23.75ZM44.125 20.975C44.675 20.975 45.1333 20.9583 45.5 20.925C45.8833 20.875 46.275 20.7917 46.675 20.675C47.075 20.5583 47.375 20.3667 47.575 20.1C47.7917 19.8167 47.9 19.4667 47.9 19.05V11.925C47.9 11.1583 47.5917 10.6167 46.975 10.3C46.3583 9.96667 45.4 9.8 44.1 9.8C42.8 9.8 41.8417 9.95833 41.225 10.275C40.6083 10.5917 40.3 11.1417 40.3 11.925V19.05C40.3 19.4667 40.4083 19.8167 40.625 20.1C40.8417 20.3667 41.1583 20.5583 41.575 20.675C41.975 20.7917 42.3583 20.875 42.725 20.925C43.1083 20.9583 43.575 20.975 44.125 20.975ZM60.6885 23.75C60.0551 23.75 59.5551 23.7333 59.1885 23.7C58.8218 23.6833 58.3718 23.6417 57.8385 23.575C57.3051 23.5083 56.8635 23.3917 56.5135 23.225C56.1801 23.0583 55.8301 22.8083 55.4635 22.475C54.7801 21.9083 54.4385 20.9417 54.4385 19.575V15.55C54.4385 14.45 54.6885 13.5333 55.1885 12.8C55.3718 12.5333 55.6385 12.2917 55.9885 12.075C56.3551 11.8417 56.7218 11.6583 57.0885 11.525C57.3885 11.425 57.7885 11.3417 58.2885 11.275C58.7885 11.2083 59.2301 11.1667 59.6135 11.15H60.9385C61.8718 11.15 63.0968 11.3 64.6135 11.6V14C62.8968 13.6 61.5801 13.4 60.6635 13.4C58.9801 13.4 58.1385 13.9667 58.1385 15.1V19.55C58.1385 20.8333 59.0635 21.475 60.9135 21.475C61.8135 21.475 63.1051 21.2917 64.7885 20.925V23.325C63.2718 23.6083 61.9051 23.75 60.6885 23.75ZM72.924 23.75C68.6407 23.75 66.499 22.4417 66.499 19.825V15.475C66.499 13.9583 66.9824 12.8583 67.949 12.175C68.9324 11.4917 70.4407 11.15 72.474 11.15C74.3907 11.15 75.7907 11.4833 76.674 12.15C77.574 12.8 78.024 13.9083 78.024 15.475V18.425H70.174V19.525C70.174 20.225 70.424 20.725 70.924 21.025C71.424 21.325 72.324 21.475 73.624 21.475C74.824 21.475 76.174 21.3 77.674 20.95V23.275C76.1907 23.5917 74.6074 23.75 72.924 23.75ZM74.549 16.35V14.6C74.549 14.2 74.3824 13.9 74.049 13.7C73.7324 13.5 73.1907 13.4 72.424 13.4C71.5407 13.4 70.949 13.5 70.649 13.7C70.3324 13.9167 70.174 14.2167 70.174 14.6V16.35H74.549ZM84.2389 23.75C83.1055 23.75 82.2555 23.65 81.6889 23.45C81.1389 23.2333 80.7472 22.8583 80.5139 22.325C80.2972 21.775 80.1889 20.9583 80.1889 19.875C80.1889 18.9083 80.3055 18.15 80.5389 17.6C80.7889 17.05 81.1805 16.6583 81.7139 16.425C82.2639 16.175 83.0139 16.05 83.9639 16.05H88.0639V15.225C88.0639 14.7083 87.9889 14.325 87.8389 14.075C87.7055 13.825 87.4472 13.65 87.0639 13.55C86.6972 13.45 86.1389 13.4 85.3889 13.4C84.3555 13.4 82.9389 13.5 81.1389 13.7V11.4C82.4555 11.2333 83.9972 11.15 85.7639 11.15C87.3139 11.15 88.5055 11.2667 89.3389 11.5C90.1889 11.7333 90.7972 12.1333 91.1639 12.7C91.5305 13.2667 91.7139 14.0917 91.7139 15.175V23.5H88.1389V22.4C87.8555 22.8833 87.4722 23.225 86.9889 23.425C86.5055 23.6417 85.5889 23.75 84.2389 23.75ZM85.6639 21.475C86.3972 21.475 86.9222 21.45 87.2389 21.4C87.4722 21.3667 87.6305 21.3167 87.7139 21.25C87.8139 21.1833 87.8972 21.075 87.9639 20.925C88.0305 20.8083 88.0639 20.6333 88.0639 20.4V18.05H85.5639C84.9972 18.05 84.5972 18.0917 84.3639 18.175C84.1305 18.2417 83.9722 18.3917 83.8889 18.625C83.8055 18.8417 83.7639 19.2333 83.7639 19.8C83.7639 20.35 83.8055 20.7333 83.8889 20.95C83.9722 21.1667 84.1305 21.3083 84.3639 21.375C84.6139 21.4417 85.0472 21.475 85.6639 21.475ZM94.9252 11.4H98.5252V12.875C98.8085 11.725 100.1 11.15 102.4 11.15C103.95 11.15 105.034 11.4333 105.65 12C106.284 12.55 106.6 13.425 106.6 14.625V23.5H102.95V15.1C102.95 14.6333 102.9 14.2833 102.8 14.05C102.717 13.8167 102.534 13.65 102.25 13.55C101.984 13.45 101.567 13.4 101 13.4C100.284 13.4 99.7585 13.45 99.4252 13.55C99.0919 13.6333 98.8669 13.7917 98.7502 14.025C98.6335 14.2583 98.5752 14.6167 98.5752 15.1V23.5H94.9252V11.4Z" fill="white"/>
<path d="M36.75 27.275H40.65V43.5H36.75V27.275ZM43.9975 31.4H47.5975V32.875C47.8808 31.725 49.1725 31.15 51.4725 31.15C53.0225 31.15 54.1058 31.4333 54.7225 32C55.3558 32.55 55.6725 33.425 55.6725 34.625V43.5H52.0225V35.1C52.0225 34.6333 51.9725 34.2833 51.8725 34.05C51.7891 33.8167 51.6058 33.65 51.3225 33.55C51.0558 33.45 50.6391 33.4 50.0725 33.4C49.3558 33.4 48.8308 33.45 48.4975 33.55C48.1641 33.6333 47.9391 33.7917 47.8225 34.025C47.7058 34.2583 47.6475 34.6167 47.6475 35.1V43.5H43.9975V31.4ZM63.3906 43.75C62.0906 43.75 60.499 43.625 58.6156 43.375V40.95C60.9323 41.3 62.5406 41.475 63.4406 41.475C64.2073 41.475 64.774 41.4 65.1406 41.25C65.5073 41.1 65.6906 40.825 65.6906 40.425V39.675C65.6906 39.2583 65.574 38.9667 65.3406 38.8C65.1073 38.6167 64.649 38.525 63.9656 38.525H62.3906C61.1073 38.525 60.1156 38.275 59.4156 37.775C58.7156 37.2583 58.3656 36.5083 58.3656 35.525V34.05C58.3656 33 58.8656 32.2583 59.8656 31.825C60.8656 31.375 62.374 31.15 64.3906 31.15C65.1906 31.15 66.624 31.225 68.6906 31.375V33.7C66.0906 33.5 64.624 33.4 64.2906 33.4C63.3073 33.4 62.6656 33.4667 62.3656 33.6C62.099 33.75 61.9656 34.025 61.9656 34.425V35.075C61.9656 35.2917 62.074 35.4833 62.2906 35.65C62.5073 35.8 62.824 35.875 63.2406 35.875H64.8406C67.8073 35.875 69.2906 36.8417 69.2906 38.775V40.3C69.2906 40.8833 69.1823 41.3917 68.9656 41.825C68.749 42.2583 68.4656 42.6 68.1156 42.85C67.7823 43.0833 67.349 43.2667 66.8156 43.4C66.299 43.5333 65.7573 43.625 65.1906 43.675C64.674 43.725 64.074 43.75 63.3906 43.75ZM72.1004 27.025H75.7504V29.975H72.1004V27.025ZM72.1004 31.4H75.7504V43.5H72.1004V31.4ZM83.9561 49C81.9894 49 80.5311 48.9417 79.5811 48.825V46.375C81.1477 46.5917 82.6061 46.7 83.9561 46.7C85.1894 46.7 86.0727 46.5 86.6061 46.1C87.1394 45.7 87.4061 45.0333 87.4061 44.1V42.15C87.1061 42.5833 86.8144 42.9167 86.5311 43.15C86.2477 43.3667 85.8727 43.5167 85.4061 43.6C84.9561 43.7 84.3311 43.75 83.5311 43.75C82.3477 43.75 81.4061 43.6417 80.7061 43.425C80.0061 43.1917 79.4977 42.8167 79.1811 42.3C78.8644 41.7667 78.7061 41.0333 78.7061 40.1V35.375C78.7061 34.2583 78.8477 33.4 79.1311 32.8C79.4311 32.2 79.9311 31.775 80.6311 31.525C81.3477 31.275 82.3727 31.15 83.7061 31.15C84.5727 31.15 85.2394 31.2 85.7061 31.3C86.1561 31.4 86.4977 31.55 86.7311 31.75C86.9644 31.95 87.2311 32.2917 87.5311 32.775V31.4H91.0561V44.15C91.0561 45.8667 90.4644 47.1 89.2811 47.85C88.1144 48.6167 86.3394 49 83.9561 49ZM84.8311 41.475C85.5477 41.475 86.0811 41.425 86.4311 41.325C86.7977 41.225 87.0477 41.0667 87.1811 40.85C87.3311 40.6167 87.4061 40.2917 87.4061 39.875V35C87.4061 34.55 87.3394 34.2167 87.2061 34C87.0727 33.7667 86.8144 33.6083 86.4311 33.525C86.0477 33.4417 85.4477 33.4 84.6311 33.4C83.9644 33.4 83.4727 33.45 83.1561 33.55C82.8394 33.65 82.6227 33.825 82.5061 34.075C82.4061 34.3083 82.3561 34.6583 82.3561 35.125V39.75C82.3561 40.2667 82.4061 40.6417 82.5061 40.875C82.6227 41.0917 82.8477 41.25 83.1811 41.35C83.5144 41.4333 84.0644 41.475 84.8311 41.475ZM94.266 26H97.916V32.875C98.1493 31.725 99.4243 31.15 101.741 31.15C103.291 31.15 104.374 31.4333 104.991 32C105.624 32.55 105.941 33.425 105.941 34.625V43.5H102.291V35.05C102.291 34.5833 102.241 34.2417 102.141 34.025C102.058 33.7917 101.883 33.6333 101.616 33.55C101.349 33.45 100.924 33.4 100.341 33.4C99.6243 33.4 99.0993 33.4417 98.766 33.525C98.4327 33.6083 98.2077 33.7667 98.091 34C97.9743 34.2167 97.916 34.5667 97.916 35.05V43.5H94.266V26ZM115.184 43.75C114.568 43.75 114.051 43.725 113.634 43.675C113.218 43.625 112.801 43.525 112.384 43.375C111.918 43.225 111.534 43.0167 111.234 42.75C110.951 42.4833 110.718 42.1167 110.534 41.65C110.334 41.1667 110.234 40.6083 110.234 39.975V33.65H107.784V31.4H110.234V27.9H113.884V31.4H117.209V33.65H113.884V39.35C113.884 39.9333 113.934 40.375 114.034 40.675C114.134 40.9583 114.326 41.1667 114.609 41.3C114.893 41.4167 115.326 41.475 115.909 41.475C116.143 41.475 116.576 41.4333 117.209 41.35V43.625C116.426 43.7083 115.751 43.75 115.184 43.75Z" fill="white"/>
<path d="M30 20.5V14.5H24V16.5H14V13.5C13.9995 12.9697 13.7886 12.4613 13.4136 12.0864C13.0387 11.7114 12.5303 11.5005 12 11.5H4C3.46973 11.5005 2.96133 11.7114 2.58637 12.0864C2.21141 12.4613 2.00053 12.9697 2 13.5V21.5C2.00053 22.0303 2.21141 22.5387 2.58637 22.9136C2.96133 23.2886 3.46973 23.4995 4 23.5H12C12.5303 23.4995 13.0387 23.2886 13.4136 22.9136C13.7886 22.5387 13.9995 22.0303 14 21.5V18.5C14.7954 18.5008 15.558 18.8171 16.1204 19.3796C16.6829 19.942 16.9992 20.7046 17 21.5V30.5H11V28.5H5V34.5H11V32.5H17V34.5C17.0005 35.0303 17.2114 35.5387 17.5864 35.9136C17.9613 36.2886 18.4697 36.4995 19 36.5H24V38.5H30V32.5H24V34.5H19V27.5H24V29.5H30V23.5H24V25.5H19V21.5C18.9963 20.4147 18.6362 19.3607 17.975 18.5H24V20.5H30ZM4 21.5V13.5H12V21.5H4ZM9 32.5H7V30.5H9V32.5ZM26 34.5H28V36.5H26V34.5ZM26 25.5H28V27.5H26V25.5ZM26 16.5H28V18.5H26V16.5Z" fill="white"/>
</svg>
