<svg xmlns="http://www.w3.org/2000/svg" xmlns:xlink="http://www.w3.org/1999/xlink" version="1.1" x="0px" y="0px" viewBox="0 0 100 125" style="enable-background:new 0 0 100 100;" xml:space="preserve"><g><path d="M32.1,38.7c2.8,0,4.9-0.6,6.2-1.8c1.4-1.2,2-3.1,2-5.6c0-2.6-0.7-4.5-2-5.7c-1.3-1.2-3.4-1.9-6.3-1.9h-6.7v20.8h4.2v-5.8   H32.1z M29.5,27.7h2.4c1.4,0,2.4,0.3,3.1,0.8s1,1.4,1,2.6c0,1.2-0.3,2.1-0.8,2.7s-1.5,0.9-2.9,0.9h-2.8V27.7z"/><path d="M56.8,41.6c1.8-1.9,2.6-4.4,2.6-7.7c0-3.2-0.9-5.8-2.7-7.6c-1.8-1.8-4.4-2.7-7.8-2.7h-6.7v20.8h6.5   C52.3,44.5,55,43.5,56.8,41.6z M53.6,38.8c-1,1.1-2.5,1.6-4.4,1.6h-2.7V27.7h2.4c2.1,0,3.7,0.6,4.8,1.7c1,1.1,1.6,2.7,1.6,4.7   C55.2,36.1,54.6,37.7,53.6,38.8z"/><polygon points="74.7,27.8 74.7,23.7 61.7,23.7 61.7,44.5 65.9,44.5 65.9,36.3 74.2,36.3 74.2,32.3 65.9,32.3 65.9,27.8  "/><path d="M80.2,1.8H19.8c-3.5,0-6.3,2.8-6.3,6.3v73.8c0,3.5,2.8,6.3,6.3,6.3h13.9l-1.9-1.9l-1.9-1.9h-10c-1.4,0-2.5-1.1-2.5-2.5V8.1   c0-1.4,1.1-2.5,2.5-2.5h60.5c1.4,0,2.5,1.1,2.5,2.5v73.8c0,1.4-1.1,2.5-2.5,2.5h-8.6l-1.9,1.9L68,88.2h12.4c3.5,0,6.3-2.8,6.3-6.3   V8.1C86.6,4.6,83.7,1.8,80.2,1.8z"/><polygon points="72.1,76.4 59,76.3 59,54.7 41,54.7 41,76 27.9,75.8 50.3,98.2  "/></g></svg>