<svg width="21" height="22" viewBox="0 0 21 22" fill="none" xmlns="http://www.w3.org/2000/svg">
<path fill-rule="evenodd" clip-rule="evenodd" d="M1.5 0.545044H18L19.5 2.04504V9.99504C19.0279 9.76419 18.5212 9.61218 18 9.54504V2.04504H10.5V18.365L8.82 20.045H1.5L0 18.545V2.04504L1.5 0.545044ZM1.5 18.545H9V2.04504H1.5V18.545ZM17.0685 11.048C16.4394 11.0713 15.826 11.2507 15.2835 11.57H15.2385C14.8044 11.832 14.4278 12.1789 14.131 12.59C13.8343 13.0011 13.6237 13.4679 13.5118 13.9623C13.3998 14.4568 13.3889 14.9688 13.4797 15.4676C13.5705 15.9664 13.7611 16.4417 14.04 16.865L10.5 20.39L11.565 21.455L15.09 17.915C15.5775 18.245 16.14 18.452 16.725 18.515C17.3024 18.5852 17.8882 18.5184 18.435 18.32C19.0031 18.1289 19.5173 17.805 19.935 17.375C20.34 16.9513 20.6383 16.4371 20.805 15.875C20.9671 15.3149 21.0029 14.7257 20.91 14.15C20.8058 13.5716 20.5686 13.0253 20.2172 12.5541C19.8658 12.083 19.4097 11.6999 18.885 11.435C18.3209 11.1576 17.6967 11.0246 17.0685 11.048ZM17.4285 17.036C16.9114 17.0873 16.3926 16.9579 15.96 16.67C15.5872 16.4184 15.2955 16.0641 15.12 15.65C14.9535 15.2413 14.9118 14.7925 15 14.36C15.0847 13.9221 15.2985 13.5194 15.614 13.204C15.9294 12.8886 16.332 12.6747 16.77 12.59C17.2024 12.5018 17.6513 12.5436 18.06 12.71C18.474 12.8855 18.828 13.1765 19.08 13.55C19.2952 13.8732 19.4231 14.2465 19.4513 14.6337C19.4795 15.0209 19.407 15.4088 19.2409 15.7597C19.0748 16.1106 18.8208 16.4125 18.5034 16.6362C18.1861 16.8599 17.8148 16.9976 17.4285 17.036Z" fill="black"/>
</svg>
