<svg xmlns="http://www.w3.org/2000/svg" viewBox="0 0 100 125" x="0px" y="0px"><path d="M46.218,73.057a1,1,0,0,0-1.406-.155l-1.071.859c-.015-.179-.044-.352-.044-.536A6.306,6.306,0,0,1,54,68.349a1,1,0,0,0,1.26-1.555A8.308,8.308,0,0,0,41.7,73.225c0,.041,0,.08,0,.121L41.219,73a1,1,0,1,0-1.168,1.623L42.5,76.383a.94.94,0,0,0,.11.055c.033.018.064.035.1.05a1.014,1.014,0,0,0,.375.083h0a1.006,1.006,0,0,0,.349-.067l.01,0c.016-.006.027-.019.042-.026a.943.943,0,0,0,.1-.055.909.909,0,0,0,.126-.069l2.353-1.889A1,1,0,0,0,46.218,73.057Z"/><path d="M57.5,70.067c-.018-.013-.04-.014-.058-.026a.95.95,0,0,0-.483-.151c-.022,0-.044,0-.066.006h-.007a.94.94,0,0,0-.184.016.905.905,0,0,0-.113.032c-.011,0-.022,0-.033,0s-.042.03-.066.041a.936.936,0,0,0-.142.079c-.019.013-.04.016-.058.03l-2.353,1.888a1,1,0,1,0,1.251,1.561l1.071-.859c.015.178.044.351.044.536A6.308,6.308,0,0,1,46,78.1a1,1,0,0,0-1.26,1.552A8.307,8.307,0,0,0,58.3,73.225c0-.041,0-.08,0-.121l.483.348a1,1,0,1,0,1.168-1.623Z"/><path d="M69.143,68.518l-3.955-1.589,1.666-3.911a3.4,3.4,0,0,0-.724-3.745L63.96,57.1a3.4,3.4,0,0,0-3.75-.734L56.3,58.036l-1.589-3.955a3.387,3.387,0,0,0-3.153-2.131H48.446a3.387,3.387,0,0,0-3.153,2.132L43.7,58.036l-3.912-1.665a3.4,3.4,0,0,0-3.743.725l-2.171,2.17a3.4,3.4,0,0,0-.732,3.749l1.666,3.914-3.956,1.589a3.388,3.388,0,0,0-2.131,3.154v3.106a3.393,3.393,0,0,0,2.132,3.155l3.955,1.588-1.666,3.912a3.4,3.4,0,0,0,.724,3.744l2.17,2.169a3.4,3.4,0,0,0,3.75.734L43.7,88.414l1.589,3.954A3.387,3.387,0,0,0,48.446,94.5h3.108a3.386,3.386,0,0,0,3.153-2.133L56.3,88.414l3.912,1.666a3.4,3.4,0,0,0,3.743-.726l2.171-2.169a3.4,3.4,0,0,0,.732-3.749l-1.666-3.915,3.957-1.589a3.391,3.391,0,0,0,2.13-3.154V71.672A3.387,3.387,0,0,0,69.143,68.518Zm.132,6.26a1.4,1.4,0,0,1-.879,1.3l-4.9,1.97a1,1,0,0,0-.547,1.319l2.067,4.856a1.394,1.394,0,0,1-.3,1.541l-2.188,2.186a1.392,1.392,0,0,1-1.535.291l-4.852-2.066a.988.988,0,0,0-.775,0,1,1,0,0,0-.545.551l-1.969,4.9a1.4,1.4,0,0,1-1.3.88H48.446a1.4,1.4,0,0,1-1.3-.879l-1.969-4.9a1,1,0,0,0-.928-.627.985.985,0,0,0-.392.08L39.005,88.24a1.391,1.391,0,0,1-1.542-.3l-2.187-2.185a1.392,1.392,0,0,1-.291-1.536l2.066-4.853a1,1,0,0,0-.547-1.319l-4.9-1.969a1.4,1.4,0,0,1-.88-1.3V71.672a1.4,1.4,0,0,1,.879-1.3l4.9-1.97a1,1,0,0,0,.547-1.319l-2.067-4.855a1.394,1.394,0,0,1,.3-1.541L37.472,58.5a1.39,1.39,0,0,1,1.535-.291l4.852,2.065a.993.993,0,0,0,.775,0,1,1,0,0,0,.545-.55l1.969-4.9a1.4,1.4,0,0,1,1.3-.879h3.108a1.4,1.4,0,0,1,1.3.878l1.969,4.9a1,1,0,0,0,.545.55.984.984,0,0,0,.775,0L61,58.209a1.394,1.394,0,0,1,1.542.3L64.724,60.7a1.392,1.392,0,0,1,.291,1.536l-2.066,4.853A1,1,0,0,0,63.5,68.4l4.9,1.97a1.4,1.4,0,0,1,.879,1.3Z"/><path d="M44.389,46.581a2.96,2.96,0,0,0,1.46-.389l12.024-6.807a2.963,2.963,0,0,0,.112-5.091L45.961,26.767a2.963,2.963,0,0,0-4.535,2.511V43.613a2.973,2.973,0,0,0,2.963,2.968Zm-.963-17.3a.942.942,0,0,1,.5-.842,1,1,0,0,1,.474-.124.942.942,0,0,1,.5.15l12.024,7.527a.965.965,0,0,1-.036,1.656L44.864,44.452a.964.964,0,0,1-1.438-.839Z"/><path d="M85.81,5.5H14.19a6.883,6.883,0,0,0-6.88,6.87V60.34a6.883,6.883,0,0,0,6.88,6.87H28.8a1,1,0,0,0,0-2H14.19a4.881,4.881,0,0,1-4.88-4.87V12.37A4.881,4.881,0,0,1,14.19,7.5H85.81a4.881,4.881,0,0,1,4.88,4.87V60.34a4.881,4.881,0,0,1-4.88,4.87H71.21a1,1,0,0,0,0,2h14.6a6.883,6.883,0,0,0,6.88-6.87V12.37A6.883,6.883,0,0,0,85.81,5.5Z"/><path d="M22.482,12.4a1,1,0,0,0-1-1H13.145a1,1,0,0,0-1,1v8.338a1,1,0,0,0,1,1h8.337a1,1,0,0,0,1-1Zm-2,7.338H14.145V13.4h6.337Z"/><path d="M22.482,25.732a1,1,0,0,0-1-1H13.145a1,1,0,0,0-1,1V34.07a1,1,0,0,0,1,1h8.337a1,1,0,0,0,1-1Zm-2,7.338H14.145V26.732h6.337Z"/><path d="M22.482,39.066a1,1,0,0,0-1-1H13.145a1,1,0,0,0-1,1V47.4a1,1,0,0,0,1,1h8.337a1,1,0,0,0,1-1Zm-2,7.337H14.145V40.066h6.337Z"/><path d="M21.482,51.4H13.145a1,1,0,0,0-1,1v8.337a1,1,0,0,0,1,1h8.337a1,1,0,0,0,1-1V52.4A1,1,0,0,0,21.482,51.4Zm-1,8.337H14.145V53.4h6.337Z"/><path d="M78.518,21.737h8.337a1,1,0,0,0,1-1V12.4a1,1,0,0,0-1-1H78.518a1,1,0,0,0-1,1v8.338A1,1,0,0,0,78.518,21.737Zm1-8.338h6.337v6.338H79.518Z"/><path d="M77.518,34.07a1,1,0,0,0,1,1h8.337a1,1,0,0,0,1-1V25.732a1,1,0,0,0-1-1H78.518a1,1,0,0,0-1,1Zm2-7.338h6.337V33.07H79.518Z"/><path d="M77.518,47.4a1,1,0,0,0,1,1h8.337a1,1,0,0,0,1-1V39.066a1,1,0,0,0-1-1H78.518a1,1,0,0,0-1,1Zm2-7.337h6.337V46.4H79.518Z"/><path d="M77.518,60.736a1,1,0,0,0,1,1h8.337a1,1,0,0,0,1-1V52.4a1,1,0,0,0-1-1H78.518a1,1,0,0,0-1,1Zm2-7.337h6.337v6.337H79.518Z"/></svg>