<svg width="34" height="27" viewBox="0 0 34 27" fill="none" xmlns="http://www.w3.org/2000/svg">
<path fill-rule="evenodd" clip-rule="evenodd" d="M24 7C29.5234 7 34 11.4766 34 17C34 22.5234 29.5234 27 24 27C18.4766 27 14 22.5234 14 17C14 11.4766 18.4766 7 24 7Z" fill="url(#paint0_radial_903_1305)"/>
<path d="M20.3557 14.7227C22.3674 12.7578 25.6331 12.7578 27.6448 14.7227L27.887 14.9609C27.9885 15.0586 27.9885 15.2187 27.887 15.3164L27.0588 16.125C27.0081 16.1758 26.926 16.1758 26.8752 16.125L26.5432 15.8008C25.137 14.4297 22.8635 14.4297 21.4573 15.8008L21.1018 16.1484C21.051 16.1992 20.969 16.1992 20.9182 16.1484L20.0901 15.3398C19.9885 15.2422 19.9885 15.082 20.0901 14.9844L20.3557 14.7227ZM29.3596 16.3945L30.0979 17.1133C30.1995 17.2109 30.1995 17.3711 30.0979 17.4688L26.7737 20.7148C26.6721 20.8125 26.5081 20.8125 26.4104 20.7148L24.051 18.4102C24.0276 18.3867 23.9846 18.3867 23.9612 18.4102L21.6018 20.7148C21.5002 20.8125 21.3362 20.8125 21.2385 20.7148L17.9026 17.4688C17.801 17.3711 17.801 17.2109 17.9026 17.1133L18.6409 16.3945C18.7424 16.2969 18.9065 16.2969 19.0042 16.3945L21.3635 18.6992C21.387 18.7227 21.4299 18.7227 21.4534 18.6992L23.8127 16.3945C23.9143 16.2969 24.0784 16.2969 24.176 16.3945L26.5354 18.6992C26.5588 18.7227 26.6018 18.7227 26.6252 18.6992L28.9846 16.3945C29.094 16.2969 29.2581 16.2969 29.3596 16.3945Z" fill="white"/>
<path d="M18.9272 2.45135L12.0565 7.55431L13.3271 4.54363L18.9272 2.45135Z" fill="#E2761B" stroke="#E2761B" stroke-linecap="round" stroke-linejoin="round"/>
<path d="M3.06593 2.45135L9.88137 7.60264L8.67296 4.54363L3.06593 2.45135ZM16.4551 14.28L14.6252 17.0835L18.5405 18.1607L19.6661 14.3421L16.4551 14.28ZM2.34088 14.3421L3.45953 18.1607L7.37478 17.0835L5.5449 14.28L2.34088 14.3421Z" fill="#E4761B" stroke="#E4761B" stroke-linecap="round" stroke-linejoin="round"/>
<path d="M7.15377 9.543L6.06274 11.1933L9.95038 11.366L9.81227 7.18832L7.15377 9.543ZM14.8393 9.543L12.1462 7.13998L12.0565 11.366L15.9372 11.1933L14.8393 9.543ZM7.37473 17.0835L9.7087 15.9441L7.69237 14.3697L7.37473 17.0835ZM12.2843 15.9441L14.6252 17.0835L14.3007 14.3697L12.2843 15.9441Z" fill="#E4761B" stroke="#E4761B" stroke-linecap="round" stroke-linejoin="round"/>
<path d="M14.6252 17.0835L12.2844 15.9441L12.4708 17.4702L12.4501 18.1124L14.6252 17.0835ZM7.37476 17.0835L9.5499 18.1124L9.53609 17.4702L9.70872 15.9441L7.37476 17.0835Z" fill="#D7C1B3" stroke="#D7C1B3" stroke-linecap="round" stroke-linejoin="round"/>
<path d="M9.58442 13.3616L7.63715 12.7884L9.01128 12.1601L9.58442 13.3616ZM12.4086 13.3616L12.9818 12.1601L14.3628 12.7884L12.4086 13.3616Z" fill="#233447" stroke="#233447" stroke-linecap="round" stroke-linejoin="round"/>
<path d="M7.37474 17.0835L7.70619 14.28L5.54486 14.3421L7.37474 17.0835ZM14.2938 14.28L14.6252 17.0835L16.4551 14.3421L14.2938 14.28ZM15.9372 11.1934L12.0565 11.366L12.4155 13.3616L12.9887 12.1601L14.3697 12.7885L15.9372 11.1934ZM7.63714 12.7885L9.01818 12.1601L9.58441 13.3616L9.95039 11.366L6.06275 11.1934L7.63714 12.7885Z" fill="#CD6116" stroke="#CD6116" stroke-linecap="round" stroke-linejoin="round"/>
<path d="M6.06274 11.1934L7.69237 14.3698L7.63713 12.7885L6.06274 11.1934ZM14.3697 12.7885L14.3007 14.3698L15.9372 11.1934L14.3697 12.7885ZM9.95038 11.366L9.5844 13.3616L10.0401 15.7163L10.1437 12.6158L9.95038 11.366ZM12.0565 11.366L11.87 12.6089L11.9529 15.7163L12.4155 13.3616L12.0565 11.366Z" fill="#E4751F" stroke="#E4751F" stroke-linecap="round" stroke-linejoin="round"/>
<path d="M12.4156 13.3616L11.9529 15.7163L12.2844 15.9441L14.3007 14.3697L14.3697 12.7885L12.4156 13.3616ZM7.63715 12.7885L7.69239 14.3697L9.70871 15.9441L10.0402 15.7163L9.58442 13.3616L7.63715 12.7885Z" fill="#F6851B" stroke="#F6851B" stroke-linecap="round" stroke-linejoin="round"/>
<path d="M12.4501 18.1124L12.4708 17.4702L12.2982 17.3183H9.69491L9.53609 17.4702L9.5499 18.1124L7.37476 17.0835L8.13433 17.705L9.67419 18.7753H12.3189L13.8657 17.705L14.6252 17.0835L12.4501 18.1124Z" fill="#C0AD9E" stroke="#C0AD9E" stroke-linecap="round" stroke-linejoin="round"/>
<path d="M12.2843 15.9441L11.9529 15.7162H10.0402L9.7087 15.9441L9.53607 17.4702L9.69489 17.3183H12.2982L12.4708 17.4702L12.2843 15.9441Z" fill="#161616" stroke="#161616" stroke-linecap="round" stroke-linejoin="round"/>
<path d="M19.2172 7.88576L19.8041 5.06843L18.9272 2.45135L12.2844 7.38168L14.8393 9.54301L18.4507 10.5995L19.2517 9.6673L18.9065 9.41871L19.4589 8.91463L19.0308 8.58318L19.5832 8.16196L19.2172 7.88576ZM2.19586 5.06843L2.7828 7.88576L2.40992 8.16196L2.96234 8.58318L2.54112 8.91463L3.09354 9.41871L2.74828 9.6673L3.54238 10.5995L7.1538 9.54301L9.70873 7.38168L3.06592 2.45135L2.19586 5.06843Z" fill="#763D16" stroke="#763D16" stroke-linecap="round" stroke-linejoin="round"/>
<path d="M18.4507 10.5995L14.8393 9.54301L15.9372 11.1934L14.3007 14.3698L16.4551 14.3421H19.6661L18.4507 10.5995ZM7.15381 9.54301L3.54239 10.5995L2.34088 14.3421H5.5449L7.69242 14.3698L6.06279 11.1934L7.15381 9.54301ZM12.0565 11.366L12.2844 7.38168L13.334 4.54364H8.67296L9.70874 7.38168L9.95042 11.366L10.0333 12.6227L10.0402 15.7163H11.9529L11.9667 12.6227L12.0565 11.366Z" fill="#F6851B" stroke="#F6851B" stroke-linecap="round" stroke-linejoin="round"/>
<defs>
<radialGradient id="paint0_radial_903_1305" cx="0" cy="0" r="1" gradientUnits="userSpaceOnUse" gradientTransform="translate(14.0001 17.0003) scale(20)">
<stop stop-color="#5D9DF6"/>
<stop offset="1" stop-color="#006FFF"/>
</radialGradient>
</defs>
</svg>
